HIERARCHY
ROOT hip
{
  OFFSET 0 0 0
  CHANNELS 6 Xposition Yposition Zposition Zrotation Yrotation Xrotation
  JOINT abdomen
  {
    OFFSET 0 20.6881 -0.73152
    CHANNELS 3 Zrotation Xrotation Yrotation
    JOINT chest
    {
      OFFSET 0 11.7043 -0.48768
      CHANNELS 3 Zrotation Xrotation Yrotation
      JOINT neck
      {
        OFFSET 0 22.1894 -2.19456
        CHANNELS 3 Zrotation Xrotation Yrotation
        JOINT head
        {
          OFFSET -0.24384 7.07133 1.2192
          CHANNELS 3 Zrotation Xrotation Yrotation
          JOINT leftEye
          {
            OFFSET 4.14528 8.04674 8.04672
            CHANNELS 3 Zrotation Xrotation Yrotation
            End Site
            {
              OFFSET 1 0 0
            }
          }
          JOINT rightEye
          {
            OFFSET -3.6576 8.04674 8.04672
            CHANNELS 3 Zrotation Xrotation Yrotation
            End Site
            {
              OFFSET 1 0 0
            }
          }
        }
      }
      JOINT rCollar
      {
        OFFSET -2.68224 19.2634 -4.8768
        CHANNELS 3 Zrotation Xrotation Yrotation
        JOINT rShldr
        {
          OFFSET -8.77824 -1.95073 1.46304
          CHANNELS 3 Zrotation Xrotation Yrotation
          JOINT rForeArm
          {
            OFFSET -28.1742 -1.7115 0.48768
            CHANNELS 3 Zrotation Xrotation Yrotation
            JOINT rHand
            {
              OFFSET -22.5879 0.773209 7.07136
              CHANNELS 3 Zrotation Xrotation Yrotation
              JOINT rThumb1
              {
                OFFSET -1.2192 -0.487915 3.41376
                CHANNELS 3 Zrotation Xrotation Yrotation
                JOINT rThumb2
                {
                  OFFSET -3.37035 -0.52449 3.41376
                  CHANNELS 3 Zrotation Xrotation Yrotation
                  End Site
                  {
                    OFFSET -1.78271 -1.18214 1.43049
                  }
                }
              }
              JOINT rIndex1
              {
                OFFSET -7.75947 0.938293 5.60832
                CHANNELS 3 Zrotation Xrotation Yrotation
                JOINT rIndex2
                {
                  OFFSET -2.54057 -0.884171 1.56538
                  CHANNELS 3 Zrotation Xrotation Yrotation
                  End Site
                  {
                    OFFSET -1.62519 -0.234802 1.16502
                  }
                }
              }
              JOINT rMid1
              {
                OFFSET -8.24714 1.18213 3.41376
                CHANNELS 3 Zrotation Xrotation Yrotation
                JOINT rMid2
                {
                  OFFSET -3.10165 -0.590103 1.0647
                  CHANNELS 3 Zrotation Xrotation Yrotation
                  End Site
                  {
                    OFFSET -2.48547 -0.328903 0.83742
                  }
                }
              }
              JOINT rRing1
              {
                OFFSET -8.82822 0.546677 1.51678
                CHANNELS 3 Zrotation Xrotation Yrotation
                JOINT rRing2
                {
                  OFFSET -2.60934 -0.819778 -0.0198488
                  CHANNELS 3 Zrotation Xrotation Yrotation
                  End Site
                  {
                    OFFSET -2.33842 -0.294052 0.168128
                  }
                }
              }
              JOINT rPinky1
              {
                OFFSET -8.27202 -0.0477905 -0.4584
                CHANNELS 3 Zrotation Xrotation Yrotation
                JOINT rPinky2
                {
                  OFFSET -1.82734 -0.647385 -0.700984
                  CHANNELS 3 Zrotation Xrotation Yrotation
                  End Site
                  {
                    OFFSET -1.69225 -0.51767 -0.607171
                  }
                }
              }
            }
          }
        }
      }
      JOINT lCollar
      {
        OFFSET 2.68224 19.2634 -4.8768
        CHANNELS 3 Zrotation Xrotation Yrotation
        JOINT lShldr
        {
          OFFSET 8.77824 -1.95073 1.46304
          CHANNELS 3 Zrotation Xrotation Yrotation
          JOINT lForeArm
          {
            OFFSET 28.1742 -1.7115 0.48768
            CHANNELS 3 Zrotation Xrotation Yrotation
            JOINT lHand
            {
              OFFSET 22.5879 0.773209 7.07136
              CHANNELS 3 Zrotation Xrotation Yrotation
              JOINT lThumb1
              {
                OFFSET 1.2192 -0.487915 3.41376
                CHANNELS 3 Zrotation Xrotation Yrotation
                JOINT lThumb2
                {
                  OFFSET 3.37035 -0.52449 3.41376
                  CHANNELS 3 Zrotation Xrotation Yrotation
                  End Site
                  {
                    OFFSET 1.78271 -1.18214 1.43049
                  }
                }
              }
              JOINT lIndex1
              {
                OFFSET 7.75947 0.938293 5.60832
                CHANNELS 3 Zrotation Xrotation Yrotation
                JOINT lIndex2
                {
                  OFFSET 2.54057 -0.884171 1.56538
                  CHANNELS 3 Zrotation Xrotation Yrotation
                  End Site
                  {
                    OFFSET 1.62519 -0.234802 1.16502
                  }
                }
              }
              JOINT lMid1
              {
                OFFSET 8.24714 1.18213 3.41376
                CHANNELS 3 Zrotation Xrotation Yrotation
                JOINT lMid2
                {
                  OFFSET 3.10165 -0.590103 1.0647
                  CHANNELS 3 Zrotation Xrotation Yrotation
                  End Site
                  {
                    OFFSET 2.48547 -0.328903 0.83742
                  }
                }
              }
              JOINT lRing1
              {
                OFFSET 8.82822 0.546677 1.51678
                CHANNELS 3 Zrotation Xrotation Yrotation
                JOINT lRing2
                {
                  OFFSET 2.60934 -0.819778 -0.0198488
                  CHANNELS 3 Zrotation Xrotation Yrotation
                  End Site
                  {
                    OFFSET 2.33842 -0.294052 0.168128
                  }
                }
              }
              JOINT lPinky1
              {
                OFFSET 8.27202 -0.0477905 -0.4584
                CHANNELS 3 Zrotation Xrotation Yrotation
                JOINT lPinky2
                {
                  OFFSET 1.82734 -0.647385 -0.700984
                  CHANNELS 3 Zrotation Xrotation Yrotation
                  End Site
                  {
                    OFFSET 1.69225 -0.51767 -0.607171
                  }
                }
              }
            }
          }
        }
      }
    }
  }
  JOINT rButtock
  {
    OFFSET -8.77824 4.35084 1.2192
    CHANNELS 3 Zrotation Xrotation Yrotation
    JOINT rThigh
    {
      OFFSET 0 -1.70687 -2.19456
      CHANNELS 3 Zrotation Xrotation Yrotation
      JOINT rShin
      {
        OFFSET 0 -36.8199 0.73152
        CHANNELS 3 Zrotation Xrotation Yrotation
        JOINT rFoot
        {
          OFFSET 0.73152 -45.1104 -5.12064
          CHANNELS 3 Zrotation Xrotation Yrotation
          End Site
          {
            OFFSET -1.1221 -3.69964 12.103
          }
        }
      }
    }
  }
  JOINT lButtock
  {
    OFFSET 8.77824 4.35084 1.2192
    CHANNELS 3 Zrotation Xrotation Yrotation
    JOINT lThigh
    {
      OFFSET 0 -1.70687 -2.19456
      CHANNELS 3 Zrotation Xrotation Yrotation
      JOINT lShin
      {
        OFFSET 0 -36.8199 0.73152
        CHANNELS 3 Zrotation Xrotation Yrotation
        JOINT lFoot
        {
          OFFSET -0.73152 -45.1104 -5.12064
          CHANNELS 3 Zrotation Xrotation Yrotation
          End Site
          {
            OFFSET 1.1221 -3.69964 12.103
          }
        }
      }
    }
  }
}
MOTION
Frames:	4
Frame Time:	0.00833333
105.99 84.5294 14.3885 0.0 0.0 0.0 -0.769345 -0.00386032 -0.0215833 -0.212072 -0.00504119 -0.0367439 4.51696e-15 7.95139e-16 -1.49088e-16 1.38559e-14 9.54166e-15 -4.53478e-16 -0.0 0.0 0.0 -0.0 0.0 0.0 2.48359e-15 5.04727e-18 9.93923e-17 4.88806e-14 3.60297e-16 -7.95139e-16 8.24956e-13 -2.40132e-13 -2.54444e-14 9.42961e-12 2.71763e-13 -3.30778e-13 2.22362e-11 6.46298e-14 -7.4743e-13 3.83905e-11 1.11319e-13 -1.30482e-12 2.2244e-11 6.59965e-14 -7.56972e-13 7.73091 5.47488 0.417314 2.22362e-11 6.45056e-14 -7.4743e-13 2.90554 0.965183 0.102902 2.22442e-11 6.49032e-14 -7.53791e-13 10.2786 0.731801 0.0259123 2.22315e-11 6.75868e-14 -7.53791e-13 2.22167 -0.733487 -0.20892 2.28739e-15 6.60027e-18 -1.98785e-16 4.69618e-14 3.47873e-16 -2.18663e-15 8.25006e-13 2.50667e-13 -4.77083e-14 9.41851e-12 -2.18713e-13 -2.98972e-13 2.22216e-11 6.28131e-14 -7.63333e-13 3.83809e-11 1.04958e-13 -1.30005e-12 2.22174e-11 6.04305e-14 -7.53791e-13 -7.73091 5.47488 -0.417314 2.22224e-11 6.20208e-14 -7.60153e-13 -2.90554 0.965183 -0.102902 2.22158e-11 6.26172e-14 -7.52996e-13 -10.2786 0.731801 -0.0259123 2.22281e-11 6.55989e-14 -7.56972e-13 -2.22167 -0.733487 0.20892 -2.03217e-16 0.0 -3.88251e-19 -0.0539199 -2.09674 -0.017708 -0.00904011 -1.75491 -0.0760423 -0.528925 3.85119 0.139776 2.03217e-16 0.0 3.88251e-19 -1.11488 -4.98914 0.0938586 0.0011515 3.48418 -0.00507053 0.537018 1.50463 -0.0922812
99.935 82.4506 8.37242 106.018 -84.6293 -101.712 -2.32751 -0.903716 0.264429 0.12344 1.48527 0.0428467 -1.3174 3.64102 0.364818 0.517463 -2.91896 0.671749 -0.0 0.0 0.0 -0.0 0.0 0.0 -2.87749e-16 5.73694e-13 1.71988e-14 21.3267 8.79439 1.29703 -7.34727 -4.33848 10.1836 0.00712093 -2.27326 -0.318838 2.07123e-10 -2.82136e-10 1.38339e-10 3.56379e-10 -4.8887e-10 2.40444e-10 2.0713e-10 -2.82134e-10 1.38328e-10 7.73091 5.47488 0.417314 2.07124e-10 -2.82135e-10 1.38338e-10 2.90554 0.965183 0.102902 2.07131e-10 -2.82135e-10 1.38333e-10 10.2786 0.731801 0.0259123 2.0712e-10 -2.82134e-10 1.38334e-10 2.22167 -0.733487 -0.20892 -4.20436e-16 5.73693e-13 1.69177e-14 -18.8799 7.25773 -2.89139 7.45524 -4.43398 -10.2856 -0.0158161 2.79173 -0.390675 4.12207e-10 -6.37009e-11 9.46581e-11 7.137e-10 -1.11292e-10 1.60752e-10 4.12201e-10 -6.37037e-11 9.46686e-11 -7.73091 5.47488 -0.417314 4.12206e-10 -6.37024e-11 9.46604e-11 -2.90554 0.965183 -0.102902 4.122e-10 -6.3703e-11 9.46666e-11 -10.2786 0.731801 -0.0259123 4.12212e-10 -6.37001e-11 9.4663e-11 -2.22167 -0.733487 0.20892 -2.03217e-16 0.0 -3.88251e-19 -4.00078 -8.77129 1.19171 0.0363042 9.87848 0.123123 -1.27874 -3.17302 -4.76733 2.03217e-16 0.0 3.88251e-19 0.828702 -10.8706 0.335242 -0.0212891 14.1082 -0.188729 1.30856 -6.355 4.37374
100.021 82.3804 8.02526 111.706 -85.5564 -106.925 -3.98765 -1.84099 0.560774 0.483164 3.05647 0.12494 -2.76336 7.49023 0.755768 1.14066 -5.99849 1.38809 -0.0 0.0 0.0 -0.0 0.0 0.0 -3.29703e-15 1.20392e-12 3.62968e-14 43.4168 18.1152 2.76688 -13.4653 -8.47294 21.1376 -0.0156106 -4.82487 -0.678638 3.87546e-10 -6.14432e-10 2.93578e-10 6.66364e-10 -1.06457e-09 5.10239e-10 3.87552e-10 -6.14428e-10 2.93566e-10 7.73091 5.47488 0.417314 3.87547e-10 -6.14429e-10 2.93576e-10 2.90554 0.965183 0.102902 3.87553e-10 -6.1443e-10 2.93572e-10 10.2786 0.731801 0.0259123 3.87546e-10 -6.1443e-10 2.93575e-10 2.22167 -0.733487 -0.20892 -3.36245e-15 1.20392e-12 3.60359e-14 -38.0222 14.8672 -6.10179 13.6226 -8.63773 -21.342 0.00902798 5.73198 -0.805286 8.88411e-10 -1.43407e-10 1.95842e-10 1.53818e-09 -2.50477e-10 3.32119e-10 8.88405e-10 -1.43411e-10 1.95853e-10 -7.73091 5.47488 -0.417314 8.8841e-10 -1.4341e-10 1.95843e-10 -2.90554 0.965183 -0.102902 8.88405e-10 -1.43411e-10 1.95848e-10 -10.2786 0.731801 -0.0259123 8.88415e-10 -1.43409e-10 1.95845e-10 -2.22167 -0.733487 0.20892 -2.03217e-16 0.0 -3.88251e-19 -7.89406 -15.8229 2.4942 -0.00947094 22.1825 0.355919 -3.37387 -10.4531 -10.056 2.03217e-16 0.0 3.88251e-19 2.91594 -17.0818 0.608343 0.0364021 25.3315 -0.410639 3.48891 -14.5136 9.33858
100.061 82.3243 7.59316 121.358 -86.7247 -116.252 -5.41687 -2.70317 0.837286 0.782015 4.46585 0.2026 -4.09349 10.9213 1.1124 1.75974 -8.75203 2.03635 -0.0 0.0 0.0 -0.0 0.0 0.0 -5.83043e-15 1.72107e-12 5.13975e-14 62.6693 26.3258 4.2911 -17.5842 -11.3713 31.1395 -0.0549949 -6.81893 -0.962571 5.76897e-10 -8.46538e-10 4.16512e-10 9.92355e-10 -1.46683e-09 7.23941e-10 5.76903e-10 -8.46533e-10 4.16499e-10 7.73091 5.47488 0.417314 5.76899e-10 -8.46535e-10 4.16509e-10 2.90554 0.965183 0.102902 5.76904e-10 -8.46536e-10 4.16507e-10 10.2786 0.731801 0.0259123 5.76899e-10 -8.46537e-10 4.1651e-10 2.22167 -0.733487 -0.20892 -5.83609e-15 1.72107e-12 5.11506e-14 -54.3119 21.5429 -9.25633 17.7665 -11.5875 -31.4756 0.0678047 8.37364 -1.18325 1.19218e-09 -1.91228e-10 2.85501e-10 2.06434e-09 -3.34087e-10 4.84856e-10 1.19217e-09 -1.91232e-10 2.85513e-10 -7.73091 5.47488 -0.417314 1.19217e-09 -1.91231e-10 2.85502e-10 -2.90554 0.965183 -0.102902 1.19217e-09 -1.91234e-10 2.85506e-10 -10.2786 0.731801 -0.0259123 1.19218e-09 -1.91232e-10 2.85503e-10 -2.22167 -0.733487 0.20892 -2.03217e-16 0.0 -3.88251e-19 -10.9913 -22.0808 3.85158 -0.151184 33.1438 0.616157 -6.46802 -16.6839 -15.2139 2.03217e-16 0.0 3.88251e-19 4.87635 -22.6318 0.867474 0.178847 35.3548 -0.660864 6.71643 -21.5129 14.2354
